REM DIRINDEX 1\2\3,1\2\4,1\2\5,1\2\6
REM DIRNAME folder01,folder02,folder03,folder04,folder05,folder06
TITLE ""
FILE "090 090.mp3" MP3
  TRACK 01 AUDIO
    TITLE "0:"
    INDEX 01 00:00:00
  TRACK 02 AUDIO
    TITLE "3:cjc157_3398"
    INDEX 01 00:00:11
  TRACK 03 AUDIO
    TITLE "0:"
    INDEX 01 00:01:30
  TRACK 04 AUDIO
    TITLE "4:cjc157_3399"
    INDEX 01 00:02:02
  TRACK 05 AUDIO
    TITLE "0:"
    INDEX 01 00:03:15
  TRACK 06 AUDIO
    TITLE "5:cjc157_3400"
    INDEX 01 00:03:59
  TRACK 07 AUDIO
    TITLE "0:"
    INDEX 01 00:06:18
  TRACK 08 AUDIO
    TITLE "5:cjc157_3401"
    INDEX 01 00:06:61
  TRACK 09 AUDIO
    TITLE "0:"
    INDEX 01 00:08:23
  TRACK 10 AUDIO
    TITLE "3:cjc157_3402"
    INDEX 01 00:08:72
  TRACK 11 AUDIO
    TITLE "0:"
    INDEX 01 00:10:55
  TRACK 12 AUDIO
    TITLE "4:cjc157_3403"
    INDEX 01 00:11:27
  TRACK 13 AUDIO
    TITLE "0:"
    INDEX 01 00:12:54
  TRACK 14 AUDIO
    TITLE "5:cjc157_3404"
    INDEX 01 00:13:26
  TRACK 15 AUDIO
    TITLE "0:"
    INDEX 01 00:15:58
  TRACK 16 AUDIO
    TITLE "5:cjc157_3405"
    INDEX 01 00:16:26
  TRACK 17 AUDIO
    TITLE "0:"
    INDEX 01 00:19:46
  TRACK 18 AUDIO
    TITLE "3:cjc157_3406"
    INDEX 01 00:20:18
  TRACK 19 AUDIO
    TITLE "0:"
    INDEX 01 00:21:37
  TRACK 20 AUDIO
    TITLE "4:cjc157_3407"
    INDEX 01 00:22:09
  TRACK 21 AUDIO
    TITLE "0:"
    INDEX 01 00:23:36
  TRACK 22 AUDIO
    TITLE "5:cjc157_3408"
    INDEX 01 00:24:08
  TRACK 23 AUDIO
    TITLE "0:"
    INDEX 01 00:26:09
  TRACK 24 AUDIO
    TITLE "5:cjc157_3409"
    INDEX 01 00:26:54
  TRACK 25 AUDIO
    TITLE "0:"
    INDEX 01 00:28:47
  TRACK 26 AUDIO
    TITLE "3:cjc157_3410"
    INDEX 01 00:29:23
  TRACK 27 AUDIO
    TITLE "0:"
    INDEX 01 00:30:40
  TRACK 28 AUDIO
    TITLE "4:cjc157_3411"
    INDEX 01 00:31:16
  TRACK 29 AUDIO
    TITLE "0:"
    INDEX 01 00:32:23
  TRACK 30 AUDIO
    TITLE "5:cjc157_3412"
    INDEX 01 00:32:70
  TRACK 31 AUDIO
    TITLE "0:"
    INDEX 01 00:36:36
  TRACK 32 AUDIO
    TITLE "5:cjc157_3413"
    INDEX 01 00:37:10
  TRACK 33 AUDIO
    TITLE "0:"
    INDEX 01 00:39:13
  TRACK 34 AUDIO
    TITLE "3:cjc157_3414"
    INDEX 01 00:39:62
  TRACK 35 AUDIO
    TITLE "0:"
    INDEX 01 00:41:02
  TRACK 36 AUDIO
    TITLE "4:cjc157_3415"
    INDEX 01 00:41:47
  TRACK 37 AUDIO
    TITLE "0:"
    INDEX 01 00:42:65
  TRACK 38 AUDIO
    TITLE "5:cjc157_3416"
    INDEX 01 00:43:39
  TRACK 39 AUDIO
    TITLE "0:"
    INDEX 01 00:45:33
  TRACK 40 AUDIO
    TITLE "5:cjc157_3417"
    INDEX 01 00:46:00
  TRACK 41 AUDIO
    TITLE "0:"
    INDEX 01 00:48:38
  TRACK 42 AUDIO
    TITLE "3:cjc157_3418"
    INDEX 01 00:49:08
  TRACK 43 AUDIO
    TITLE "0:"
    INDEX 01 00:50:19
  TRACK 44 AUDIO
    TITLE "4:cjc157_3419"
    INDEX 01 00:50:68
  TRACK 45 AUDIO
    TITLE "0:"
    INDEX 01 00:51:69
  TRACK 46 AUDIO
    TITLE "5:cjc157_3420"
    INDEX 01 00:52:39
  TRACK 47 AUDIO
    TITLE "0:"
    INDEX 01 00:55:03
  TRACK 48 AUDIO
    TITLE "3:cjc157_3421"
    INDEX 01 00:55:48
  TRACK 49 AUDIO
    TITLE "0:"
    INDEX 01 00:56:51
  TRACK 50 AUDIO
    TITLE "4:cjc157_3422"
    INDEX 01 00:57:23
  TRACK 51 AUDIO
    TITLE "0:"
    INDEX 01 00:58:36
  TRACK 52 AUDIO
    TITLE "5:cjc157_3423"
    INDEX 01 00:59:04
  TRACK 53 AUDIO
    TITLE "0:"
    INDEX 01 01:01:25
  TRACK 54 AUDIO
    TITLE "5:cjc157_3424"
    INDEX 01 01:01:72
  TRACK 55 AUDIO
    TITLE "0:"
    INDEX 01 01:06:34
  TRACK 56 AUDIO
    TITLE "3:cjc157_3425"
    INDEX 01 01:07:04
  TRACK 57 AUDIO
    TITLE "0:"
    INDEX 01 01:08:25
  TRACK 58 AUDIO
    TITLE "4:cjc157_3426"
    INDEX 01 01:08:72
  TRACK 59 AUDIO
    TITLE "0:"
    INDEX 01 01:10:37
  TRACK 60 AUDIO
    TITLE "5:cjc157_3427"
    INDEX 01 01:11:07
  TRACK 61 AUDIO
    TITLE "0:"
    INDEX 01 01:13:20
  TRACK 62 AUDIO
    TITLE "3:cjc157_3428"
    INDEX 01 01:13:67
  TRACK 63 AUDIO
    TITLE "0:"
    INDEX 01 01:14:72
  TRACK 64 AUDIO
    TITLE "4:cjc157_3429"
    INDEX 01 01:15:48
  TRACK 65 AUDIO
    TITLE "0:"
    INDEX 01 01:16:60
  TRACK 66 AUDIO
    TITLE "5:cjc157_3430"
    INDEX 01 01:17:33
  TRACK 67 AUDIO
    TITLE "0:"
    INDEX 01 01:19:60
  TRACK 68 AUDIO
    TITLE "3:cjc157_3431"
    INDEX 01 01:20:36
  TRACK 69 AUDIO
    TITLE "0:"
    INDEX 01 01:21:57
  TRACK 70 AUDIO
    TITLE "4:cjc157_3432"
    INDEX 01 01:22:25
  TRACK 71 AUDIO
    TITLE "0:"
    INDEX 01 01:23:38
  TRACK 72 AUDIO
    TITLE "5:cjc157_3433"
    INDEX 01 01:24:10
  TRACK 73 AUDIO
    TITLE "0:"
    INDEX 01 01:26:17
